<svg xmlns="http://www.w3.org/2000/svg" xmlns:xlink="http://www.w3.org/1999/xlink" width="48" height="24" viewBox="0 0 48 24"><defs><path id="a" d="M6 12A6 6 0 1 1 6 0a6 6 0 0 1 0 12zm0-3a3 3 0 1 0 0-6 3 3 0 0 0 0 6z"/><linearGradient id="b"><stop offset="25%" stop-color="#333" stop-opacity=".5"/><stop offset="75%" stop-color="#333"/></linearGradient><linearGradient id="d"><stop offset="25%" stop-color="#333" stop-opacity=".5"/><stop offset="66%" stop-color="#333" stop-opacity="0"/></linearGradient><path id="e" d="M6 12A6 6 0 1 1 6 0a6 6 0 0 1 0 12zm0-3a3 3 0 1 0 0-6 3 3 0 0 0 0 6z"/><linearGradient id="f"><stop offset="25%" stop-color="#FFF" stop-opacity=".5"/><stop offset="75%" stop-color="#FFF"/></linearGradient><linearGradient id="h"><stop offset="25%" stop-color="#FFF" stop-opacity=".5"/><stop offset="66%" stop-color="#FFF" stop-opacity="0"/></linearGradient></defs><g fill="none" fill-rule="evenodd"><path fill="#333" d="M6 0l6 10H0z"/><path fill="#FFF" d="M6 12l6 10H0z"/><g transform="translate(12)"><mask id="c" fill="#fff"><use xlink:href="#a"/></mask><path fill="url(#b)" d="M0 0h12v6H0z" mask="url(#c)"/><path fill="url(#d)" d="M0 6h12v6H0z" mask="url(#c)"/></g><g transform="translate(12 12)"><mask id="g" fill="#fff"><use xlink:href="#e"/></mask><path fill="url(#f)" d="M0 0h12v6H0z" mask="url(#g)"/><path fill="url(#h)" d="M0 6h12v6H0z" mask="url(#g)"/></g><path fill="#333" d="M29 5V2h2v3h3v2h-3v3h-2V7h-3V5h3z"/><path fill="#FFF" d="M29 17v-3h2v3h3v2h-3v3h-2v-3h-3v-2h3z"/><path fill="#333" d="M38 5h8v2h-8z"/><path fill="#FFF" d="M38 17h8v2h-8z"/></g></svg>